#define 1550156626092_width 11
#define 1550156626092_height 11
static char 1550156626092_bits[] = {
  0x00, 0x00, 0x00, 0x06, 0x00, 0x07, 0x80, 0x03, 0xC0, 0x01, 0xE3, 0x00, 
  0x77, 0x00, 0x3E, 0x00, 0x1C, 0x00, 0x08, 0x00, 0x00, 0x00, };
