#define 1550158124104_width 11
#define 1550158124104_height 11
static char 1550158124104_bits[] = {
  0x03, 0x06, 0x07, 0x07, 0x8E, 0x03, 0xDC, 0x01, 0xF8, 0x00, 0x70, 0x00, 
  0xF8, 0x00, 0xDC, 0x01, 0x8E, 0x03, 0x07, 0x07, 0x03, 0x06, };
